<svg width="17" height="16" viewBox="0 0 17 16" fill="none" xmlns="http://www.w3.org/2000/svg">
<path d="M9.605 0C7.35828 0 4.85588 0.390956 2.9954 2.50017C1.13764 4.60939 0 8.26435 0 14.6087V15.3043H5.88608C6.55928 15.7391 7.31612 16 8.16 16C9.0032 16 9.7614 15.7336 10.4339 15.3043H17V14.6087C17 8.95652 15.9324 5.67374 14.535 3.7607C13.3042 2.07722 11.8884 1.60835 10.8372 1.49983L10.2 0.347826L10.0096 0H9.605ZM9.22216 1.43513L9.775 2.43478L9.9654 2.78261H10.37C11.0568 2.78261 12.3066 3.01913 13.4504 4.58713C14.5425 6.08 15.504 8.92522 15.5978 13.913H11.9428C12.0176 13.8157 12.0856 13.7099 12.1557 13.6083C13.0784 12.2609 13.6 10.5788 13.6 9.04348H12.24C12.24 10.2414 11.8021 11.7057 11.05 12.8042C10.2979 13.9033 9.2922 14.6087 8.16 14.6087C7.02916 14.6087 6.02276 13.9061 5.27 12.8042C4.51724 11.7037 4.08 10.233 4.08 9.04348C4.08 8.73461 4.1378 8.57948 4.2296 8.45635C4.31936 8.33322 4.47712 8.22678 4.71716 8.13078C5.19792 7.936 6.00916 7.856 6.86392 7.78296C7.71936 7.70922 8.61152 7.63965 9.41392 7.26122C10.2163 6.88209 10.88 6.02435 10.88 4.86957H9.52C9.52 5.59583 9.33368 5.7767 8.8604 6C8.38848 6.22261 7.58064 6.31861 6.73608 6.39165C5.89152 6.464 5.00208 6.50504 4.20648 6.82574C3.81004 6.98574 3.42584 7.22783 3.14568 7.60904C2.8628 7.98957 2.72 8.49948 2.72 9.04348C2.72 10.5725 3.24224 12.2365 4.165 13.5861C4.2398 13.6974 4.318 13.8073 4.39892 13.913H1.4008C1.4926 8.23444 2.5636 5.08104 4.01472 3.43444C5.43456 1.8247 7.26716 1.47617 9.2208 1.43513H9.22216ZM6.12 9.04348C5.93965 9.04348 5.76669 9.11677 5.63917 9.24723C5.51164 9.37769 5.44 9.55463 5.44 9.73913C5.44 9.92363 5.51164 10.1006 5.63917 10.231C5.76669 10.3615 5.93965 10.4348 6.12 10.4348C6.30035 10.4348 6.47331 10.3615 6.60083 10.231C6.72836 10.1006 6.8 9.92363 6.8 9.73913C6.8 9.55463 6.72836 9.37769 6.60083 9.24723C6.47331 9.11677 6.30035 9.04348 6.12 9.04348ZM10.2 9.04348C10.0197 9.04348 9.84669 9.11677 9.71917 9.24723C9.59164 9.37769 9.52 9.55463 9.52 9.73913C9.52 9.92363 9.59164 10.1006 9.71917 10.231C9.84669 10.3615 10.0197 10.4348 10.2 10.4348C10.3803 10.4348 10.5533 10.3615 10.6808 10.231C10.8084 10.1006 10.88 9.92363 10.88 9.73913C10.88 9.55463 10.8084 9.37769 10.6808 9.24723C10.5533 9.11677 10.3803 9.04348 10.2 9.04348Z" fill="black"/>
</svg>
