<svg width="125" height="32" viewBox="0 0 125 32" fill="none" xmlns="http://www.w3.org/2000/svg">
<path d="M1.30078 17V4.20312H5.68652C7.13379 4.20312 8.23535 4.49316 8.99121 5.07324C9.74707 5.65332 10.125 6.51758 10.125 7.66602C10.125 8.25195 9.9668 8.7793 9.65039 9.24805C9.33398 9.7168 8.87109 10.0801 8.26172 10.3379C8.95312 10.5254 9.48633 10.8799 9.86133 11.4014C10.2422 11.917 10.4326 12.5381 10.4326 13.2646C10.4326 14.4658 10.0459 15.3887 9.27246 16.0332C8.50488 16.6777 7.40332 17 5.96777 17H1.30078ZM3.52441 11.2256V15.2246H5.99414C6.69141 15.2246 7.23633 15.0518 7.62891 14.7061C8.02148 14.3604 8.21777 13.8799 8.21777 13.2646C8.21777 11.9346 7.53809 11.2549 6.17871 11.2256H3.52441ZM3.52441 9.59082H5.7041C6.39551 9.59082 6.93457 9.43555 7.32129 9.125C7.71387 8.80859 7.91016 8.36328 7.91016 7.78906C7.91016 7.15625 7.72852 6.69922 7.36523 6.41797C7.00781 6.13672 6.44824 5.99609 5.68652 5.99609H3.52441V9.59082ZM15.5391 4.20312L19.2305 14.0117L22.9131 4.20312H25.7871V17H23.5723V12.7812L23.792 7.13867L20.0127 17H18.4219L14.6514 7.14746L14.8711 12.7812V17H12.6562V4.20312H15.5391ZM30.7705 17H28.5557V4.20312H30.7705V17ZM47.751 12.834C47.6221 14.1992 47.1182 15.2656 46.2393 16.0332C45.3604 16.7949 44.1914 17.1758 42.7324 17.1758C41.7129 17.1758 40.8135 16.9355 40.0342 16.4551C39.2607 15.9688 38.6631 15.2803 38.2412 14.3896C37.8193 13.499 37.5996 12.4648 37.582 11.2871V10.0918C37.582 8.88477 37.7959 7.82129 38.2236 6.90137C38.6514 5.98145 39.2637 5.27246 40.0605 4.77441C40.8633 4.27637 41.7891 4.02734 42.8379 4.02734C44.25 4.02734 45.3867 4.41113 46.248 5.17871C47.1094 5.94629 47.6104 7.03027 47.751 8.43066H45.5361C45.4307 7.51074 45.1611 6.84863 44.7275 6.44434C44.2998 6.03418 43.6699 5.8291 42.8379 5.8291C41.8711 5.8291 41.127 6.18359 40.6055 6.89258C40.0898 7.5957 39.8262 8.62988 39.8145 9.99512V11.1289C39.8145 12.5117 40.0605 13.5664 40.5527 14.293C41.0508 15.0195 41.7773 15.3828 42.7324 15.3828C43.6055 15.3828 44.2617 15.1865 44.7012 14.7939C45.1406 14.4014 45.4189 13.748 45.5361 12.834H47.751ZM55.2217 17C55.1279 16.8184 55.0459 16.5225 54.9756 16.1123C54.2959 16.8213 53.4639 17.1758 52.4795 17.1758C51.5244 17.1758 50.7451 16.9033 50.1416 16.3584C49.5381 15.8135 49.2363 15.1396 49.2363 14.3369C49.2363 13.3232 49.6113 12.5469 50.3613 12.0078C51.1172 11.4629 52.1953 11.1904 53.5957 11.1904H54.9053V10.5664C54.9053 10.0742 54.7676 9.68164 54.4922 9.38867C54.2168 9.08984 53.7979 8.94043 53.2354 8.94043C52.749 8.94043 52.3506 9.06348 52.04 9.30957C51.7295 9.5498 51.5742 9.85742 51.5742 10.2324H49.4385C49.4385 9.71094 49.6113 9.22461 49.957 8.77344C50.3027 8.31641 50.7715 7.95898 51.3633 7.70117C51.9609 7.44336 52.626 7.31445 53.3584 7.31445C54.4717 7.31445 55.3594 7.5957 56.0215 8.1582C56.6836 8.71484 57.0234 9.5 57.041 10.5137V14.8027C57.041 15.6582 57.1611 16.3408 57.4014 16.8506V17H55.2217ZM52.875 15.4619C53.2969 15.4619 53.6924 15.3594 54.0615 15.1543C54.4365 14.9492 54.7178 14.6738 54.9053 14.3281V12.5352H53.7539C52.9629 12.5352 52.3682 12.6729 51.9697 12.9482C51.5713 13.2236 51.3721 13.6133 51.3721 14.1172C51.3721 14.5273 51.5068 14.8555 51.7764 15.1016C52.0518 15.3418 52.418 15.4619 52.875 15.4619ZM61.5498 17H59.4141V3.5H61.5498V17ZM67.79 15.4707C68.3232 15.4707 68.7656 15.3154 69.1172 15.0049C69.4688 14.6943 69.6562 14.3105 69.6797 13.8535H71.6924C71.6689 14.4453 71.4844 14.999 71.1387 15.5146C70.793 16.0244 70.3242 16.4287 69.7324 16.7275C69.1406 17.0264 68.502 17.1758 67.8164 17.1758C66.4863 17.1758 65.4316 16.7451 64.6523 15.8838C63.873 15.0225 63.4834 13.833 63.4834 12.3154V12.0957C63.4834 10.6484 63.8701 9.49121 64.6436 8.62402C65.417 7.75098 66.4717 7.31445 67.8076 7.31445C68.9385 7.31445 69.8584 7.64551 70.5674 8.30762C71.2822 8.96387 71.6572 9.82812 71.6924 10.9004H69.6797C69.6562 10.3555 69.4688 9.90723 69.1172 9.55566C68.7715 9.2041 68.3291 9.02832 67.79 9.02832C67.0986 9.02832 66.5654 9.28027 66.1904 9.78418C65.8154 10.2822 65.625 11.041 65.6191 12.0605V12.4033C65.6191 13.4346 65.8037 14.2051 66.1729 14.7148C66.5479 15.2188 67.0869 15.4707 67.79 15.4707ZM79.0664 16.0684C78.4395 16.8066 77.5488 17.1758 76.3945 17.1758C75.3633 17.1758 74.5811 16.874 74.0479 16.2705C73.5205 15.667 73.2568 14.7939 73.2568 13.6514V7.49023H75.3926V13.625C75.3926 14.832 75.8936 15.4355 76.8955 15.4355C77.9326 15.4355 78.6328 15.0635 78.9961 14.3193V7.49023H81.1318V17H79.1191L79.0664 16.0684ZM85.5791 17H83.4434V3.5H85.5791V17ZM93.5947 17C93.501 16.8184 93.4189 16.5225 93.3486 16.1123C92.6689 16.8213 91.8369 17.1758 90.8525 17.1758C89.8975 17.1758 89.1182 16.9033 88.5146 16.3584C87.9111 15.8135 87.6094 15.1396 87.6094 14.3369C87.6094 13.3232 87.9844 12.5469 88.7344 12.0078C89.4902 11.4629 90.5684 11.1904 91.9688 11.1904H93.2783V10.5664C93.2783 10.0742 93.1406 9.68164 92.8652 9.38867C92.5898 9.08984 92.1709 8.94043 91.6084 8.94043C91.1221 8.94043 90.7236 9.06348 90.4131 9.30957C90.1025 9.5498 89.9473 9.85742 89.9473 10.2324H87.8115C87.8115 9.71094 87.9844 9.22461 88.3301 8.77344C88.6758 8.31641 89.1445 7.95898 89.7363 7.70117C90.334 7.44336 90.999 7.31445 91.7314 7.31445C92.8447 7.31445 93.7324 7.5957 94.3945 8.1582C95.0566 8.71484 95.3965 9.5 95.4141 10.5137V14.8027C95.4141 15.6582 95.5342 16.3408 95.7744 16.8506V17H93.5947ZM91.248 15.4619C91.6699 15.4619 92.0654 15.3594 92.4346 15.1543C92.8096 14.9492 93.0908 14.6738 93.2783 14.3281V12.5352H92.127C91.3359 12.5352 90.7412 12.6729 90.3428 12.9482C89.9443 13.2236 89.7451 13.6133 89.7451 14.1172C89.7451 14.5273 89.8799 14.8555 90.1494 15.1016C90.4248 15.3418 90.791 15.4619 91.248 15.4619ZM100.327 5.17871V7.49023H102.006V9.07227H100.327V14.3809C100.327 14.7441 100.397 15.0078 100.538 15.1719C100.685 15.3301 100.942 15.4092 101.312 15.4092C101.558 15.4092 101.807 15.3799 102.059 15.3213V16.9736C101.572 17.1084 101.104 17.1758 100.652 17.1758C99.0117 17.1758 98.1914 16.2705 98.1914 14.46V9.07227H96.627V7.49023H98.1914V5.17871H100.327ZM107.833 17.1758C106.479 17.1758 105.381 16.751 104.537 15.9014C103.699 15.0459 103.28 13.9092 103.28 12.4912V12.2275C103.28 11.2783 103.462 10.4316 103.825 9.6875C104.194 8.9375 104.71 8.35449 105.372 7.93848C106.034 7.52246 106.772 7.31445 107.587 7.31445C108.882 7.31445 109.881 7.72754 110.584 8.55371C111.293 9.37988 111.647 10.5488 111.647 12.0605V12.9219H105.434C105.498 13.707 105.759 14.3281 106.216 14.7852C106.679 15.2422 107.259 15.4707 107.956 15.4707C108.935 15.4707 109.731 15.0752 110.347 14.2842L111.498 15.3828C111.117 15.9512 110.607 16.3936 109.969 16.71C109.336 17.0205 108.624 17.1758 107.833 17.1758ZM107.578 9.02832C106.992 9.02832 106.518 9.2334 106.154 9.64355C105.797 10.0537 105.568 10.625 105.469 11.3574H109.538V11.1992C109.491 10.4844 109.301 9.94531 108.967 9.58203C108.633 9.21289 108.17 9.02832 107.578 9.02832Z" fill="#4A0C44"/>
<path d="M5.33936 28.0049C5.26611 28.6787 5.02441 29.1943 4.61426 29.5518C4.20703 29.9092 3.66357 30.0879 2.98389 30.0879C2.50928 30.0879 2.08887 29.9692 1.72266 29.7319C1.35938 29.4946 1.07812 29.1592 0.878906 28.7256C0.679688 28.2891 0.578613 27.791 0.575684 27.2314V26.4009C0.575684 25.8325 0.675293 25.3286 0.874512 24.8892C1.07373 24.4497 1.35938 24.1113 1.73145 23.874C2.10645 23.6338 2.53711 23.5137 3.02344 23.5137C3.70898 23.5137 4.24951 23.6997 4.64502 24.0718C5.04346 24.4409 5.2749 24.9521 5.33936 25.6055H4.79443C4.65967 24.5186 4.06934 23.9751 3.02344 23.9751C2.44336 23.9751 1.98047 24.1919 1.63477 24.6255C1.29199 25.0591 1.12061 25.6582 1.12061 26.4229V27.2051C1.12061 27.9434 1.2876 28.5322 1.62158 28.9717C1.9585 29.4111 2.4126 29.6309 2.98389 29.6309C3.54932 29.6309 3.97559 29.4961 4.2627 29.2266C4.5498 28.9541 4.72705 28.5469 4.79443 28.0049H5.33936ZM9.53174 30C9.479 29.8506 9.44531 29.6294 9.43066 29.3364C9.24609 29.5767 9.01025 29.7627 8.72314 29.8945C8.43896 30.0234 8.13721 30.0879 7.81787 30.0879C7.36084 30.0879 6.99023 29.9604 6.70605 29.7056C6.4248 29.4507 6.28418 29.1284 6.28418 28.7388C6.28418 28.2759 6.47607 27.9097 6.85986 27.6401C7.24658 27.3706 7.78418 27.2358 8.47266 27.2358H9.42627V26.6953C9.42627 26.3555 9.3208 26.0889 9.10986 25.8955C8.90186 25.6992 8.59717 25.6011 8.1958 25.6011C7.82959 25.6011 7.52637 25.6948 7.28613 25.8823C7.0459 26.0698 6.92578 26.2954 6.92578 26.5591L6.39844 26.5547C6.39844 26.1768 6.57422 25.8501 6.92578 25.5747C7.27734 25.2964 7.70947 25.1572 8.22217 25.1572C8.75244 25.1572 9.16992 25.2905 9.47461 25.5571C9.78223 25.8208 9.94043 26.1899 9.94922 26.6646V28.9146C9.94922 29.3745 9.99756 29.7188 10.0942 29.9473V30H9.53174ZM7.87939 29.6221C8.23096 29.6221 8.54443 29.5371 8.81982 29.3672C9.09814 29.1973 9.30029 28.9702 9.42627 28.686V27.6401H8.48584C7.96143 27.646 7.55127 27.7427 7.25537 27.9302C6.95947 28.1147 6.81152 28.3696 6.81152 28.6948C6.81152 28.9614 6.90967 29.1826 7.10596 29.3584C7.30518 29.5342 7.56299 29.6221 7.87939 29.6221ZM11.9443 30H11.417V23.25H11.9443V30ZM15.1348 29.644C15.501 29.644 15.8071 29.5415 16.0532 29.3364C16.3022 29.1284 16.437 28.8604 16.4575 28.5322H16.9629C16.9482 28.8223 16.8574 29.0874 16.6904 29.3276C16.5234 29.5649 16.3008 29.751 16.0225 29.8857C15.7471 30.0205 15.4512 30.0879 15.1348 30.0879C14.5107 30.0879 14.0156 29.8711 13.6494 29.4375C13.2861 29.0039 13.1045 28.4209 13.1045 27.6885V27.5303C13.1045 27.0615 13.1865 26.647 13.3506 26.2866C13.5146 25.9263 13.749 25.6479 14.0537 25.4517C14.3613 25.2554 14.7202 25.1572 15.1304 25.1572C15.6519 25.1572 16.0811 25.3125 16.418 25.623C16.7578 25.9336 16.9395 26.3423 16.9629 26.8491H16.4575C16.4341 26.4771 16.2993 26.1768 16.0532 25.9482C15.8101 25.7197 15.5024 25.6055 15.1304 25.6055C14.6558 25.6055 14.2866 25.7769 14.0229 26.1196C13.7622 26.4624 13.6318 26.9429 13.6318 27.561V27.7148C13.6318 28.3213 13.7622 28.7944 14.0229 29.1343C14.2866 29.4741 14.6572 29.644 15.1348 29.644ZM21.0762 29.3979C20.7598 29.8579 20.2544 30.0879 19.5601 30.0879C19.0532 30.0879 18.668 29.9414 18.4043 29.6484C18.1406 29.3525 18.0059 28.916 18 28.3389V25.2451H18.5229V28.2729C18.5229 29.1782 18.8892 29.6309 19.6216 29.6309C20.3833 29.6309 20.8652 29.3159 21.0674 28.686V25.2451H21.5947V30H21.085L21.0762 29.3979ZM23.5547 30H23.0273V23.25H23.5547V30ZM27.9888 30C27.936 29.8506 27.9023 29.6294 27.8877 29.3364C27.7031 29.5767 27.4673 29.7627 27.1802 29.8945C26.896 30.0234 26.5942 30.0879 26.2749 30.0879C25.8179 30.0879 25.4473 29.9604 25.1631 29.7056C24.8818 29.4507 24.7412 29.1284 24.7412 28.7388C24.7412 28.2759 24.9331 27.9097 25.3169 27.6401C25.7036 27.3706 26.2412 27.2358 26.9297 27.2358H27.8833V26.6953C27.8833 26.3555 27.7778 26.0889 27.5669 25.8955C27.3589 25.6992 27.0542 25.6011 26.6528 25.6011C26.2866 25.6011 25.9834 25.6948 25.7432 25.8823C25.5029 26.0698 25.3828 26.2954 25.3828 26.5591L24.8555 26.5547C24.8555 26.1768 25.0312 25.8501 25.3828 25.5747C25.7344 25.2964 26.1665 25.1572 26.6792 25.1572C27.2095 25.1572 27.627 25.2905 27.9316 25.5571C28.2393 25.8208 28.3975 26.1899 28.4062 26.6646V28.9146C28.4062 29.3745 28.4546 29.7188 28.5513 29.9473V30H27.9888ZM26.3364 29.6221C26.688 29.6221 27.0015 29.5371 27.2769 29.3672C27.5552 29.1973 27.7573 28.9702 27.8833 28.686V27.6401H26.9429C26.4185 27.646 26.0083 27.7427 25.7124 27.9302C25.4165 28.1147 25.2686 28.3696 25.2686 28.6948C25.2686 28.9614 25.3667 29.1826 25.563 29.3584C25.7622 29.5342 26.02 29.6221 26.3364 29.6221ZM30.6299 24.0278V25.2451H31.6143V25.6758H30.6299V28.8442C30.6299 29.1079 30.6768 29.3042 30.7705 29.4331C30.8672 29.562 31.0269 29.6265 31.2495 29.6265C31.3374 29.6265 31.4795 29.6118 31.6758 29.5825L31.6978 30.0132C31.5601 30.063 31.3726 30.0879 31.1353 30.0879C30.7749 30.0879 30.5127 29.9839 30.3486 29.7759C30.1846 29.5649 30.1025 29.2559 30.1025 28.8486V25.6758H29.228V25.2451H30.1025V24.0278H30.6299ZM34.5454 30.0879C34.1411 30.0879 33.7749 29.9883 33.4468 29.7891C33.1216 29.5898 32.8682 29.313 32.6865 28.9585C32.5049 28.6011 32.4141 28.2012 32.4141 27.7588V27.5698C32.4141 27.1128 32.502 26.7012 32.6777 26.335C32.8564 25.9688 33.104 25.6816 33.4204 25.4736C33.7368 25.2627 34.0796 25.1572 34.4487 25.1572C35.0259 25.1572 35.4829 25.355 35.8198 25.7505C36.1597 26.1431 36.3296 26.6807 36.3296 27.3633V27.6577H32.937V27.7588C32.937 28.2979 33.0908 28.7476 33.3984 29.1079C33.709 29.4653 34.0986 29.644 34.5674 29.644C34.8486 29.644 35.0962 29.5928 35.3101 29.4902C35.5269 29.3877 35.7231 29.2236 35.8989 28.998L36.2285 29.2485C35.8418 29.8081 35.2808 30.0879 34.5454 30.0879ZM34.4487 25.6055C34.0532 25.6055 33.7192 25.7505 33.4468 26.0405C33.1772 26.3306 33.0132 26.7202 32.9546 27.2095H35.8066V27.1523C35.792 26.6953 35.6616 26.3232 35.4155 26.0361C35.1694 25.749 34.8472 25.6055 34.4487 25.6055ZM41.0493 29.2441L42.438 25.2451H43.0049L40.9746 30.8086L40.8691 31.0547C40.6084 31.6318 40.2056 31.9204 39.6606 31.9204C39.5347 31.9204 39.3999 31.8999 39.2563 31.8589L39.252 31.4238L39.5244 31.4502C39.7822 31.4502 39.9902 31.3857 40.1484 31.2568C40.3096 31.1309 40.4458 30.9126 40.5571 30.6021L40.79 29.9604L38.9971 25.2451H39.5728L41.0493 29.2441ZM43.4619 27.5522C43.4619 27.0952 43.5498 26.6836 43.7256 26.3174C43.9043 25.9512 44.1548 25.667 44.4771 25.4648C44.8022 25.2598 45.1699 25.1572 45.5801 25.1572C46.2129 25.1572 46.7256 25.3799 47.1182 25.8252C47.5107 26.2676 47.707 26.855 47.707 27.5874V27.6973C47.707 28.1572 47.6177 28.5718 47.439 28.9409C47.2632 29.3071 47.0142 29.5898 46.6919 29.7891C46.3696 29.9883 46.002 30.0879 45.5889 30.0879C44.959 30.0879 44.4463 29.8667 44.0508 29.4243C43.6582 28.979 43.4619 28.3901 43.4619 27.6577V27.5522ZM43.9893 27.6973C43.9893 28.2656 44.1357 28.7329 44.4287 29.0991C44.7246 29.4624 45.1113 29.644 45.5889 29.644C46.0635 29.644 46.4473 29.4624 46.7402 29.0991C47.0361 28.7329 47.1841 28.251 47.1841 27.6533V27.5522C47.1841 27.189 47.1167 26.8564 46.9819 26.5547C46.8472 26.2529 46.6582 26.02 46.415 25.856C46.1719 25.689 45.8936 25.6055 45.5801 25.6055C45.1113 25.6055 44.729 25.79 44.4331 26.1592C44.1372 26.5254 43.9893 27.0059 43.9893 27.6006V27.6973ZM51.8555 29.3979C51.5391 29.8579 51.0337 30.0879 50.3394 30.0879C49.8325 30.0879 49.4473 29.9414 49.1836 29.6484C48.9199 29.3525 48.7852 28.916 48.7793 28.3389V25.2451H49.3022V28.2729C49.3022 29.1782 49.6685 29.6309 50.4009 29.6309C51.1626 29.6309 51.6445 29.3159 51.8467 28.686V25.2451H52.374V30H51.8643L51.8555 29.3979ZM55.9424 25.6934C55.8311 25.6729 55.7124 25.6626 55.5864 25.6626C55.2583 25.6626 54.98 25.7549 54.7515 25.9395C54.5259 26.1211 54.3647 26.3862 54.2681 26.7349V30H53.7451V25.2451H54.2593L54.2681 26.001C54.5464 25.4385 54.9932 25.1572 55.6084 25.1572C55.7549 25.1572 55.8706 25.1763 55.9556 25.2144L55.9424 25.6934ZM62.7935 27.6709C62.7935 28.4121 62.6294 29.001 62.3013 29.4375C61.9731 29.8711 61.5322 30.0879 60.9785 30.0879C60.3164 30.0879 59.8154 29.8418 59.4756 29.3496L59.4536 30H58.9614V23.25H59.4844V25.9351C59.8184 25.4165 60.3135 25.1572 60.9697 25.1572C61.5322 25.1572 61.9761 25.3726 62.3013 25.8032C62.6294 26.231 62.7935 26.8271 62.7935 27.5918V27.6709ZM62.2661 27.5786C62.2661 26.9517 62.1445 26.4683 61.9014 26.1284C61.6582 25.7856 61.3154 25.6143 60.873 25.6143C60.5361 25.6143 60.2505 25.6978 60.0161 25.8647C59.7817 26.0288 59.6045 26.2705 59.4844 26.5898V28.7344C59.748 29.332 60.2139 29.6309 60.8818 29.6309C61.3154 29.6309 61.6538 29.4595 61.897 29.1167C62.1431 28.7739 62.2661 28.2612 62.2661 27.5786ZM63.668 27.5522C63.668 27.0952 63.7559 26.6836 63.9316 26.3174C64.1104 25.9512 64.3608 25.667 64.6831 25.4648C65.0083 25.2598 65.376 25.1572 65.7861 25.1572C66.4189 25.1572 66.9316 25.3799 67.3242 25.8252C67.7168 26.2676 67.9131 26.855 67.9131 27.5874V27.6973C67.9131 28.1572 67.8237 28.5718 67.645 28.9409C67.4692 29.3071 67.2202 29.5898 66.8979 29.7891C66.5757 29.9883 66.208 30.0879 65.7949 30.0879C65.165 30.0879 64.6523 29.8667 64.2568 29.4243C63.8643 28.979 63.668 28.3901 63.668 27.6577V27.5522ZM64.1953 27.6973C64.1953 28.2656 64.3418 28.7329 64.6348 29.0991C64.9307 29.4624 65.3174 29.644 65.7949 29.644C66.2695 29.644 66.6533 29.4624 66.9463 29.0991C67.2422 28.7329 67.3901 28.251 67.3901 27.6533V27.5522C67.3901 27.189 67.3228 26.8564 67.188 26.5547C67.0532 26.2529 66.8643 26.02 66.6211 25.856C66.3779 25.689 66.0996 25.6055 65.7861 25.6055C65.3174 25.6055 64.9351 25.79 64.6392 26.1592C64.3433 26.5254 64.1953 27.0059 64.1953 27.6006V27.6973ZM68.792 27.5786C68.792 26.8403 68.9561 26.2529 69.2842 25.8164C69.6152 25.377 70.0635 25.1572 70.6289 25.1572C71.2705 25.1572 71.7598 25.4106 72.0967 25.9175V23.25H72.6196V30H72.1274L72.1055 29.3672C71.7686 29.8477 71.2734 30.0879 70.6201 30.0879C70.0723 30.0879 69.6299 29.8682 69.293 29.4287C68.959 28.9863 68.792 28.3901 68.792 27.6401V27.5786ZM69.3237 27.6709C69.3237 28.2773 69.4453 28.7563 69.6885 29.1079C69.9316 29.4565 70.2744 29.6309 70.7168 29.6309C71.3643 29.6309 71.8242 29.3452 72.0967 28.7739V26.5415C71.8242 25.9233 71.3672 25.6143 70.7256 25.6143C70.2832 25.6143 69.939 25.7886 69.6929 26.1372C69.4468 26.4829 69.3237 26.9941 69.3237 27.6709ZM75.5112 29.2441L76.8999 25.2451H77.4668L75.4365 30.8086L75.3311 31.0547C75.0703 31.6318 74.6675 31.9204 74.1226 31.9204C73.9966 31.9204 73.8618 31.8999 73.7183 31.8589L73.7139 31.4238L73.9863 31.4502C74.2441 31.4502 74.4521 31.3857 74.6104 31.2568C74.7715 31.1309 74.9077 30.9126 75.019 30.6021L75.252 29.9604L73.459 25.2451H74.0347L75.5112 29.2441ZM80.9517 25.2451L80.9692 26.0186C81.145 25.7314 81.3647 25.5161 81.6284 25.3726C81.8921 25.229 82.1851 25.1572 82.5073 25.1572C83.2573 25.1572 83.7334 25.4648 83.9355 26.0801C84.1055 25.7842 84.3325 25.5571 84.6167 25.3989C84.9009 25.2378 85.2144 25.1572 85.5571 25.1572C86.5767 25.1572 87.0967 25.7139 87.1172 26.8271V30H86.5898V26.8667C86.5869 26.4419 86.4946 26.127 86.313 25.9219C86.1343 25.7168 85.8413 25.6143 85.4341 25.6143C85.0562 25.6201 84.7368 25.7432 84.4761 25.9834C84.2153 26.2207 84.0703 26.5107 84.041 26.8535V30H83.5137V26.8271C83.5107 26.4199 83.4141 26.1167 83.2236 25.9175C83.0361 25.7153 82.7461 25.6143 82.3535 25.6143C82.0225 25.6143 81.7383 25.7095 81.501 25.8999C81.2637 26.0874 81.0879 26.3672 80.9736 26.7393V30H80.4463V25.2451H80.9517ZM91.4546 30C91.4019 29.8506 91.3682 29.6294 91.3535 29.3364C91.1689 29.5767 90.9331 29.7627 90.646 29.8945C90.3618 30.0234 90.0601 30.0879 89.7407 30.0879C89.2837 30.0879 88.9131 29.9604 88.6289 29.7056C88.3477 29.4507 88.207 29.1284 88.207 28.7388C88.207 28.2759 88.3989 27.9097 88.7827 27.6401C89.1694 27.3706 89.707 27.2358 90.3955 27.2358H91.3491V26.6953C91.3491 26.3555 91.2437 26.0889 91.0327 25.8955C90.8247 25.6992 90.52 25.6011 90.1187 25.6011C89.7524 25.6011 89.4492 25.6948 89.209 25.8823C88.9688 26.0698 88.8486 26.2954 88.8486 26.5591L88.3213 26.5547C88.3213 26.1768 88.4971 25.8501 88.8486 25.5747C89.2002 25.2964 89.6323 25.1572 90.145 25.1572C90.6753 25.1572 91.0928 25.2905 91.3975 25.5571C91.7051 25.8208 91.8633 26.1899 91.8721 26.6646V28.9146C91.8721 29.3745 91.9204 29.7188 92.0171 29.9473V30H91.4546ZM89.8022 29.6221C90.1538 29.6221 90.4673 29.5371 90.7427 29.3672C91.021 29.1973 91.2231 28.9702 91.3491 28.686V27.6401H90.4087C89.8843 27.646 89.4741 27.7427 89.1782 27.9302C88.8823 28.1147 88.7344 28.3696 88.7344 28.6948C88.7344 28.9614 88.8325 29.1826 89.0288 29.3584C89.228 29.5342 89.4858 29.6221 89.8022 29.6221ZM96.126 28.7915C96.126 28.5308 96.0205 28.3213 95.8096 28.1631C95.6016 28.0049 95.2866 27.8818 94.8647 27.7939C94.4429 27.7031 94.1147 27.6006 93.8804 27.4863C93.6489 27.3691 93.4761 27.2271 93.3618 27.0601C93.2505 26.8931 93.1948 26.6909 93.1948 26.4536C93.1948 26.0786 93.3516 25.7695 93.665 25.5264C93.9785 25.2803 94.3799 25.1572 94.8691 25.1572C95.3994 25.1572 95.8242 25.2891 96.1436 25.5527C96.4658 25.8135 96.627 26.1548 96.627 26.5767H96.0996C96.0996 26.2983 95.9824 26.0669 95.748 25.8823C95.5166 25.6978 95.2236 25.6055 94.8691 25.6055C94.5234 25.6055 94.2451 25.6831 94.0342 25.8384C93.8262 25.9907 93.7222 26.1899 93.7222 26.436C93.7222 26.6733 93.8086 26.8579 93.9814 26.9897C94.1572 27.1187 94.4751 27.2373 94.9351 27.3457C95.3979 27.4541 95.7437 27.5698 95.9722 27.6929C96.2036 27.8159 96.375 27.9639 96.4863 28.1367C96.5977 28.3096 96.6533 28.519 96.6533 28.7651C96.6533 29.1665 96.4907 29.4873 96.1655 29.7275C95.8433 29.9678 95.4214 30.0879 94.8999 30.0879C94.3462 30.0879 93.8965 29.9546 93.5508 29.688C93.208 29.4185 93.0366 29.0786 93.0366 28.6685H93.564C93.5845 28.9761 93.7134 29.2163 93.9507 29.3892C94.1909 29.5591 94.5073 29.644 94.8999 29.644C95.2661 29.644 95.562 29.5635 95.7876 29.4023C96.0132 29.2412 96.126 29.0376 96.126 28.7915ZM100.688 28.7915C100.688 28.5308 100.582 28.3213 100.371 28.1631C100.163 28.0049 99.8481 27.8818 99.4263 27.7939C99.0044 27.7031 98.6763 27.6006 98.4419 27.4863C98.2104 27.3691 98.0376 27.2271 97.9233 27.0601C97.812 26.8931 97.7563 26.6909 97.7563 26.4536C97.7563 26.0786 97.9131 25.7695 98.2266 25.5264C98.54 25.2803 98.9414 25.1572 99.4307 25.1572C99.9609 25.1572 100.386 25.2891 100.705 25.5527C101.027 25.8135 101.188 26.1548 101.188 26.5767H100.661C100.661 26.2983 100.544 26.0669 100.31 25.8823C100.078 25.6978 99.7852 25.6055 99.4307 25.6055C99.085 25.6055 98.8066 25.6831 98.5957 25.8384C98.3877 25.9907 98.2837 26.1899 98.2837 26.436C98.2837 26.6733 98.3701 26.8579 98.543 26.9897C98.7188 27.1187 99.0366 27.2373 99.4966 27.3457C99.9595 27.4541 100.305 27.5698 100.534 27.6929C100.765 27.8159 100.937 27.9639 101.048 28.1367C101.159 28.3096 101.215 28.519 101.215 28.7651C101.215 29.1665 101.052 29.4873 100.727 29.7275C100.405 29.9678 99.9829 30.0879 99.4614 30.0879C98.9077 30.0879 98.458 29.9546 98.1123 29.688C97.7695 29.4185 97.5981 29.0786 97.5981 28.6685H98.1255C98.146 28.9761 98.2749 29.2163 98.5122 29.3892C98.7524 29.5591 99.0688 29.644 99.4614 29.644C99.8276 29.644 100.124 29.5635 100.349 29.4023C100.575 29.2412 100.688 29.0376 100.688 28.7915ZM105.179 30H104.651V25.2451H105.179V30ZM104.559 23.8696C104.559 23.77 104.591 23.6865 104.656 23.6191C104.72 23.5488 104.808 23.5137 104.919 23.5137C105.031 23.5137 105.119 23.5488 105.183 23.6191C105.25 23.6865 105.284 23.77 105.284 23.8696C105.284 23.9692 105.25 24.0527 105.183 24.1201C105.119 24.1875 105.031 24.2212 104.919 24.2212C104.808 24.2212 104.72 24.1875 104.656 24.1201C104.591 24.0527 104.559 23.9692 104.559 23.8696ZM107.112 25.2451L107.13 26.0581C107.309 25.7651 107.531 25.5425 107.798 25.3901C108.064 25.2349 108.359 25.1572 108.681 25.1572C109.191 25.1572 109.57 25.3008 109.819 25.5879C110.068 25.875 110.194 26.3057 110.197 26.8799V30H109.674V26.8755C109.671 26.4507 109.581 26.1343 109.402 25.9263C109.226 25.7183 108.943 25.6143 108.554 25.6143C108.229 25.6143 107.94 25.7168 107.688 25.9219C107.439 26.124 107.254 26.3979 107.134 26.7437V30H106.611V25.2451H107.112ZM111.349 27.5786C111.349 26.8403 111.513 26.2529 111.841 25.8164C112.172 25.377 112.62 25.1572 113.186 25.1572C113.827 25.1572 114.316 25.4106 114.653 25.9175V23.25H115.176V30H114.684L114.662 29.3672C114.325 29.8477 113.83 30.0879 113.177 30.0879C112.629 30.0879 112.187 29.8682 111.85 29.4287C111.516 28.9863 111.349 28.3901 111.349 27.6401V27.5786ZM111.88 27.6709C111.88 28.2773 112.002 28.7563 112.245 29.1079C112.488 29.4565 112.831 29.6309 113.273 29.6309C113.921 29.6309 114.381 29.3452 114.653 28.7739V26.5415C114.381 25.9233 113.924 25.6143 113.282 25.6143C112.84 25.6143 112.496 25.7886 112.25 26.1372C112.003 26.4829 111.88 26.9941 111.88 27.6709ZM118.402 30.0879C117.998 30.0879 117.631 29.9883 117.303 29.7891C116.978 29.5898 116.725 29.313 116.543 28.9585C116.361 28.6011 116.271 28.2012 116.271 27.7588V27.5698C116.271 27.1128 116.358 26.7012 116.534 26.335C116.713 25.9688 116.96 25.6816 117.277 25.4736C117.593 25.2627 117.936 25.1572 118.305 25.1572C118.882 25.1572 119.339 25.355 119.676 25.7505C120.016 26.1431 120.186 26.6807 120.186 27.3633V27.6577H116.793V27.7588C116.793 28.2979 116.947 28.7476 117.255 29.1079C117.565 29.4653 117.955 29.644 118.424 29.644C118.705 29.644 118.953 29.5928 119.167 29.4902C119.383 29.3877 119.58 29.2236 119.755 28.998L120.085 29.2485C119.698 29.8081 119.137 30.0879 118.402 30.0879ZM118.305 25.6055C117.91 25.6055 117.576 25.7505 117.303 26.0405C117.034 26.3306 116.87 26.7202 116.811 27.2095H119.663V27.1523C119.648 26.6953 119.518 26.3232 119.272 26.0361C119.026 25.749 118.704 25.6055 118.305 25.6055ZM122.704 27.1743L123.987 25.2451H124.611L122.999 27.5786L124.682 30H124.062L122.708 27.9873L121.355 30H120.735L122.414 27.5786L120.801 25.2451H121.421L122.704 27.1743Z" fill="#CCB4B4"/>
</svg>
