<svg width="15" height="16" viewBox="0 0 15 16" fill="none" xmlns="http://www.w3.org/2000/svg">
<path d="M9 0C6.2505 0 4.1655 0.574727 2.76525 1.75018C1.3665 2.92564 0.75 4.63915 0.75 6.66737V7.27143C0.321 7.63414 0 8.10085 0 8.66758C0 9.50767 0.6675 10.1037 1.5 10.3971C1.7775 11.1752 2.07975 11.9926 2.415 12.6887C2.77875 13.4501 3.108 14.0541 3.5625 14.4822C4.06705 14.9612 4.67685 15.3431 5.35413 15.6042C6.03142 15.8653 6.76178 16 7.5 16C8.23822 16 8.96858 15.8653 9.64587 15.6042C10.3232 15.3431 10.9329 14.9612 11.4375 14.4822C11.892 14.0541 12.1973 13.4501 12.5625 12.6887C12.897 11.9926 13.2225 11.1752 13.5 10.3978C14.3325 10.1044 15 9.50833 15 8.66824C15 8.10419 14.6775 7.6368 14.25 7.2721V6.66737C14.25 4.7845 13.7677 3.44436 12.915 2.56294C12.1905 1.81619 11.2238 1.50949 10.266 1.41615L9.6795 0.37604L9.4695 0H9ZM8.5545 1.37548L9.0705 2.29224C9.32025 2.73629 9.41775 3.05232 9.4215 3.18767C9.426 3.32368 9.43125 3.26768 9.399 3.29301C9.33375 3.34168 8.7015 3.48637 7.9215 3.5217C7.1415 3.55771 6.2235 3.54037 5.367 3.83507C4.512 4.12977 3.75975 4.91985 3.75 6.00196H5.25C5.256 5.34456 5.42775 5.24989 5.90625 5.0852C6.38475 4.92052 7.20975 4.87185 8.016 4.83518C8.8215 4.7985 9.65325 4.84184 10.3597 4.31512C10.7122 4.05043 10.9373 3.59504 10.9222 3.14833C10.9185 3.04965 10.8923 2.95498 10.875 2.85497C11.2187 2.98591 11.5237 3.18581 11.766 3.43903C12.3097 4.00042 12.75 4.98852 12.75 6.66737V7.89683L13.125 8.08352C13.353 8.20153 13.5 8.41422 13.5 8.66758C13.5044 8.83494 13.4363 8.99741 13.3099 9.12147C13.1835 9.24553 13.0083 9.32172 12.8205 9.33432L12.3045 9.35432L12.1642 9.79236C11.8882 10.5911 11.5673 11.3771 11.2028 12.1473C10.8653 12.8514 10.4775 13.4514 10.359 13.5634C8.7615 15.0636 6.23625 15.0636 4.64025 13.5634C4.52025 13.4514 4.134 12.8514 3.79575 12.1466C3.43211 11.3762 3.11172 10.5903 2.83575 9.7917L2.69475 9.35365L2.17875 9.33365C1.99124 9.3209 1.81636 9.24473 1.6901 9.12083C1.56384 8.99693 1.49581 8.83472 1.5 8.66758C1.5 8.41822 1.64475 8.2022 1.875 8.08418L2.25 7.8975V6.66737C2.25 4.86918 2.763 3.57638 3.79725 2.70829C4.75725 1.90153 6.32475 1.44148 8.5545 1.37481V1.37548ZM5.25 8.00084C5.05109 8.00084 4.86032 8.07109 4.71967 8.19612C4.57902 8.32116 4.5 8.49075 4.5 8.66758C4.5 8.84441 4.57902 9.014 4.71967 9.13903C4.86032 9.26407 5.05109 9.33432 5.25 9.33432C5.44891 9.33432 5.63968 9.26407 5.78033 9.13903C5.92098 9.014 6 8.84441 6 8.66758C6 8.49075 5.92098 8.32116 5.78033 8.19612C5.63968 8.07109 5.44891 8.00084 5.25 8.00084ZM9.75 8.00084C9.55109 8.00084 9.36032 8.07109 9.21967 8.19612C9.07902 8.32116 9 8.49075 9 8.66758C9 8.84441 9.07902 9.014 9.21967 9.13903C9.36032 9.26407 9.55109 9.33432 9.75 9.33432C9.94891 9.33432 10.1397 9.26407 10.2803 9.13903C10.421 9.014 10.5 8.84441 10.5 8.66758C10.5 8.49075 10.421 8.32116 10.2803 8.19612C10.1397 8.07109 9.94891 8.00084 9.75 8.00084Z" fill="black"/>
</svg>
