<svg width="16" height="18" viewBox="0 0 16 18" fill="none" xmlns="http://www.w3.org/2000/svg">
<path d="M8 15.75C12.1421 15.75 15.5 12.3921 15.5 8.25C15.5 4.10786 12.1421 0.75 8 0.75C3.85786 0.75 0.5 4.10786 0.5 8.25C0.5 12.3921 3.85786 15.75 8 15.75Z" fill="#FFF59D"/>
<path d="M12.875 8.25C12.875 5.3625 10.4 3.075 7.4375 3.4125C5.1875 3.675 3.3875 5.475 3.1625 7.725C2.975 9.45 3.6875 10.9875 4.8875 11.9625C5.4125 12.4125 5.75 13.05 5.75 13.7625V13.875H10.25V13.8375C10.25 13.1625 10.55 12.4875 11.075 12.0375C12.1625 11.1375 12.875 9.7875 12.875 8.25Z" fill="#FBC02D"/>
<path d="M10.475 7.575L9.35 6.825C9.2375 6.75 9.05 6.75 8.9375 6.825L8 7.425L7.1 6.825C6.9875 6.75 6.8 6.75 6.6875 6.825L5.5625 7.575C5.4875 7.65 5.4125 7.725 5.4125 7.8375C5.4125 7.95 5.4125 8.0625 5.4875 8.1375L6.9125 9.9V13.875H7.6625V9.75C7.6625 9.675 7.625 9.6 7.5875 9.525L6.35 7.9875L6.9125 7.6125L7.8125 8.2125C7.925 8.2875 8.1125 8.2875 8.225 8.2125L9.125 7.6125L9.6875 7.9875L8.45 9.525C8.4125 9.6 8.375 9.675 8.375 9.75V13.875H9.125V9.9L10.55 8.1375C10.625 8.0625 10.6625 7.95 10.625 7.8375C10.5875 7.725 10.55 7.6125 10.475 7.575Z" fill="#FFF59D"/>
<path d="M8 17.625C8.62132 17.625 9.125 17.1213 9.125 16.5C9.125 15.8787 8.62132 15.375 8 15.375C7.37868 15.375 6.875 15.8787 6.875 16.5C6.875 17.1213 7.37868 17.625 8 17.625Z" fill="#5C6BC0"/>
<path d="M8.75 16.875H7.25C6.425 16.875 5.75 16.2 5.75 15.375V13.5H10.25V15.375C10.25 16.2 9.575 16.875 8.75 16.875Z" fill="#9FA8DA"/>
<path d="M10.25 15.375L5.9 15.975C6.0125 16.2375 6.2375 16.5 6.5 16.65L10.025 16.1625C10.175 15.9375 10.25 15.675 10.25 15.375Z" fill="#5C6BC0"/>
<path d="M5.75 14.5125V15.2625L10.25 14.625V13.875L5.75 14.5125Z" fill="#5C6BC0"/>
</svg>
